<svg width="12" height="12" viewBox="0 0 12 12" fill="none" xmlns="http://www.w3.org/2000/svg">
<path d="M6.05588 2.948C5.38988 2.948 4.86788 3.137 4.48988 3.524C4.11188 3.902 3.92288 4.415 3.92288 5.072H4.86788C4.86788 4.676 4.94888 4.37 5.11088 4.154C5.29088 3.893 5.58788 3.767 5.99288 3.767C6.31688 3.767 6.57788 3.857 6.75788 4.037C6.92888 4.217 7.01888 4.46 7.01888 4.775C7.01888 5.009 6.92888 5.225 6.76688 5.432L6.61388 5.603C6.05588 6.098 5.71388 6.467 5.59688 6.719C5.47088 6.953 5.41688 7.241 5.41688 7.574V7.727H6.37988V7.574C6.37988 7.358 6.42488 7.16 6.52388 6.98C6.60488 6.818 6.73088 6.656 6.90188 6.512C7.32488 6.143 7.57688 5.909 7.65788 5.81C7.88288 5.522 7.99988 5.153 7.99988 4.712C7.99988 4.172 7.81988 3.74 7.45988 3.425C7.09988 3.101 6.63188 2.948 6.05588 2.948ZM5.89388 8.213C5.71388 8.213 5.55188 8.267 5.42588 8.393C5.29988 8.51 5.23688 8.663 5.23688 8.852C5.23688 9.032 5.29988 9.185 5.42588 9.311C5.55188 9.437 5.71388 9.5 5.89388 9.5C6.07388 9.5 6.23588 9.437 6.36188 9.32C6.48788 9.194 6.55988 9.041 6.55988 8.852C6.55988 8.663 6.49688 8.51 6.37088 8.393C6.24488 8.267 6.08288 8.213 5.89388 8.213Z" fill="#BFBFBF"/>
<circle cx="6" cy="6" r="5.5" stroke="#BFBFBF"/>
</svg>
