
<svg width="24" height="24" viewBox="0 0 32 32" fill="none" xmlns="http://www.w3.org/2000/svg">
    <path d="M16.4384 13.3345C16.7948 13.4838 17.1364 13.6857 17.4519 13.9412C19.2403 15.3894 19.516 18.0131 18.0678 19.8015L15.7079 22.7158C14.2597 24.5041 11.636 24.7799 9.84762 23.3317C8.05926 21.8835 7.78349 19.2598 9.23168 17.4714L11.4888 14.6841L11.5607 15.3685C11.6113 15.8499 11.7763 16.2915 12.0258 16.6693L10.5269 18.5203C9.65801 19.5933 9.82347 21.1676 10.8965 22.0365C11.9695 22.9054 13.5437 22.7399 14.4126 21.6669L16.7726 18.7526C17.6415 17.6796 17.4761 16.1053 16.403 15.2364C16.0747 14.9705 15.6994 14.8015 15.3118 14.7257L16.4384 13.3345ZM15.1819 18.5885C14.8254 18.4391 14.4839 18.2373 14.1684 17.9818C12.38 16.5336 12.1042 13.9099 13.5524 12.1215L15.9124 9.2072C17.3606 7.41885 19.9843 7.14308 21.7726 8.59126C23.561 10.0394 23.8368 12.6632 22.3886 14.4515L20.1315 17.2389L20.0595 16.5544C20.0089 16.0731 19.844 15.6314 19.5945 15.2536L21.0933 13.4027C21.9623 12.3297 21.7968 10.7554 20.7238 9.88651C19.6508 9.0176 18.0765 9.18306 17.2076 10.2561L14.8477 13.1704C13.9788 14.2434 14.1442 15.8176 15.2172 16.6865C15.5456 16.9524 15.9209 17.1215 16.3085 17.1973L15.1819 18.5885Z" fill="#3370FF" />
</svg>
